<?xml version="1.0" encoding="UTF-8"?>
<svg width="133px" height="21px" viewBox="0 0 133 21" version="1.1" xmlns="http://www.w3.org/2000/svg" xmlns:xlink="http://www.w3.org/1999/xlink">
    <title>编组</title>
    <g id="页面-1" stroke="none" stroke-width="1" fill="none" fill-rule="evenodd">
        <g id="编组" transform="translate(-0.004635, 0.492292)" fill="#4A72FF" fill-rule="nonzero">
            <path d="M13.5566863,0.658192355 C13.6915111,0.700723844 13.7892657,0.826771607 13.7892657,0.975651189 C13.7892657,1.12216627 13.6945915,1.246569 13.5630818,1.29102061 L12.1824784,1.86840148 C12.0989263,1.89761199 12.0091521,1.91368676 11.9156235,1.91368676 C11.8422235,1.91368676 11.7711358,1.90378647 11.703623,1.8852484 C9.05710699,1.32793183 6.18958724,2.07748388 4.13353556,4.13353556 C0.899780364,7.36729075 0.897907332,12.6083708 4.12935202,15.8398155 C7.36079672,19.0712602 12.6018768,19.0693872 15.835632,15.835632 C17.8817592,13.7895048 18.6339691,10.9397244 18.0918982,8.30388373 C18.0674291,8.22722157 18.0542219,8.14552944 18.0542219,8.0607526 C18.0542219,7.93613559 18.0827591,7.81818378 18.1336549,7.71307566 L18.6781384,6.41110716 C18.7214064,6.27753173 18.846836,6.180943 18.9948251,6.180943 C19.1476346,6.180943 19.276391,6.28392653 19.3154763,6.42427558 C20.6730238,9.98826697 19.9161152,14.1733861 17.0447506,17.0447506 C13.1455281,20.9439731 6.82363938,20.9439731 2.92441688,17.0447506 C-0.974805625,13.1455281 -0.974805625,6.82363938 2.92441688,2.92441688 C5.79894946,0.0498842879 9.99013716,-0.705523886 13.5566863,0.658192355 Z M17.9323254,1.76472812 C18.1161365,1.76472812 18.2651449,1.91373646 18.2651449,2.09754758 C18.2651449,2.153217 18.251477,2.20569413 18.227314,2.25180631 L12.6083973,15.0705765 C12.5613511,15.1972719 12.4393654,15.2875468 12.2962949,15.2875468 C12.1496964,15.2875468 12.0252355,15.1927648 11.9808497,15.0611384 L10.2205588,9.80918386 L4.99363519,8.05725667 C4.84844509,8.02145043 4.74077722,7.89035139 4.74077722,7.73410517 C4.74077722,7.59111904 4.83094574,7.46919289 4.95752344,7.42208605 L17.7818931,1.80058555 C17.8270734,1.77765311 17.87819,1.76472812 17.9323254,1.76472812 Z M15.4725297,4.55715804 L8.58521449,7.57617941 L11.4824827,8.54726744 L12.4535511,11.4445342 L15.4725297,4.55715804 Z" id="形状结合"></path>
            <path d="M39.8273765,17.9941148 C40.0992195,16.3605994 40.3710625,14.7737559 40.6429054,13.2335843 C40.6882126,12.9535531 40.665559,12.7201938 40.5749447,12.5335063 C40.4390232,12.3934907 40.1445267,12.3234829 39.6914551,12.3234829 L39.6914551,12.3234829 L38.8759262,12.3234829 L39.2836906,10.4332723 C39.963298,10.8999909 40.6882126,11.226694 41.4584343,11.4133815 L41.4584343,11.4133815 L41.9341595,9.80320206 C41.3904735,9.66318646 40.824134,9.42982712 40.235141,9.10312405 C39.6461479,8.77642098 39.261037,8.42638197 39.0798084,8.05300703 L39.0798084,8.05300703 L41.7302772,8.05300703 L42.0700809,6.65285101 L37.3807899,6.65285101 L37.7205936,5.8127574 L41.526395,5.8127574 L41.8661987,4.34259358 L40.5749447,4.34259358 C40.7108662,4.10923424 40.8694412,3.75919523 41.0506698,3.29247656 C41.2318985,2.87242975 41.36782,2.52239075 41.4584343,2.24235954 L41.4584343,2.24235954 L39.6234943,2.24235954 C39.3516514,3.08245316 39.0798084,3.78253117 38.8079655,4.34259358 L38.8079655,4.34259358 L38.1283581,4.34259358 C38.2642795,3.78253117 38.3775474,2.96577349 38.4681618,1.89232054 L38.4681618,1.89232054 L36.6332218,1.89232054 C36.5879146,2.73241415 36.4746467,3.54917183 36.2934181,4.34259358 L36.2934181,4.34259358 L35.6817715,4.34259358 L35.274007,2.24235954 L33.4390671,2.24235954 L33.8468315,4.34259358 L32.6235382,4.34259358 L32.3516952,5.8127574 L35.8176929,5.8127574 C35.6364643,6.23280421 35.5231964,6.51283541 35.4778892,6.65285101 L35.4778892,6.65285101 L32.2157738,6.65285101 L31.9439308,8.05300703 L34.5264389,8.05300703 C34.2545959,8.33303824 33.8241779,8.63640537 33.2351848,8.96310845 C32.6461918,9.28981152 32.1251594,9.49983492 31.6720878,9.59317866 L31.6720878,9.59317866 L31.2643234,11.4133815 C31.8986236,11.2733659 32.4649631,11.0866784 32.9633419,10.8533191 L32.9633419,10.8533191 L32.419656,13.7236389 L38.400201,13.7236389 C38.5814297,13.7236389 38.672044,13.7703108 38.672044,13.8636545 L38.672044,13.8636545 L38.672044,14.0736779 C38.5361225,14.7270841 38.3548939,15.5671777 38.1283581,16.5939588 L38.1283581,16.5939588 L34.7982818,16.5939588 L35.0701248,17.9941148 L39.8273765,17.9941148 Z M26.5070717,17.9941148 C27.0507576,16.1272401 27.5038292,14.2603654 27.8662865,12.3934907 L27.8662865,12.3934907 L29.021619,12.3934907 L28.0022079,17.9941148 L29.7691872,17.9941148 L32.2837345,3.43249216 C32.3290417,3.19913283 32.3516952,2.98910942 32.3516952,2.80242195 C32.3063881,2.66240635 32.1931202,2.54572668 32.0118915,2.45238295 C31.8306629,2.40571108 31.5588199,2.38237515 31.1963627,2.38237515 L31.1963627,2.38237515 L27.9342472,2.38237515 C27.299947,6.20946827 26.7109539,9.52317085 26.167268,12.3234829 C25.8048107,14.2837013 25.3517391,16.173912 24.8080532,17.9941148 L24.8080532,17.9941148 L26.5070717,17.9941148 Z M30.1089908,6.65285101 L28.8856975,6.65285101 L29.3614227,3.92254677 L30.1769516,3.92254677 C30.4034874,3.92254677 30.5167553,3.9458827 30.5167553,3.99255457 L30.5167553,3.99255457 L30.5167553,4.27258578 L30.1089908,6.65285101 Z M29.293462,10.9233269 L28.1381294,10.9233269 L28.6138546,8.05300703 L29.8371479,8.05300703 L29.293462,10.9233269 Z M38.0603973,9.31314745 L35.3419678,9.31314745 C35.8403465,8.89310065 36.2707645,8.47305384 36.6332218,8.05300703 L36.6332218,8.05300703 L37.2448685,8.05300703 C37.4714043,8.51972571 37.7432472,8.93977251 38.0603973,9.31314745 L38.0603973,9.31314745 Z M37.108947,12.3234829 L34.4584782,12.3234829 L34.6623604,11.2733659 L33.8468315,10.7133035 L37.108947,10.7133035 C37.2901756,10.7133035 37.3807899,10.7366394 37.3807899,10.7833113 L37.3807899,10.7833113 L37.3807899,11.0633425 L37.108947,12.3234829 Z M37.3128292,15.8938808 L37.5846722,14.4937247 L31.0604412,14.4937247 L31.2643234,15.8938808 L37.3128292,15.8938808 Z M48.5572159,5.76583376 L47.7837784,1.96895876 L45.8853409,1.96895876 L46.5884659,5.76583376 L48.5572159,5.76583376 Z M51.7212784,18.1408338 L53.1275284,9.91427126 L56.0103409,9.91427126 L54.6040909,18.1408338 L58.4712784,18.1408338 L59.1040909,16.5236463 L56.9244034,16.5236463 L59.1744034,3.65645876 C59.2681534,3.09395876 59.2212784,2.74239626 59.0337784,2.60177126 C58.7994034,2.46114626 58.4712784,2.39083376 58.0494034,2.39083376 L58.0494034,2.39083376 L49.4712784,2.39083376 L49.8228409,4.00802126 L56.5025284,4.00802126 C56.7837784,4.00802126 56.9478409,4.05489626 56.9947159,4.14864626 C57.0415909,4.24239626 57.0415909,4.35958376 56.9947159,4.50020876 L56.9947159,4.50020876 L56.2915909,8.43770876 L53.4087784,8.43770876 L53.9009659,5.83614626 L52.1431534,4.57052126 L51.4400284,8.43770876 L48.9790909,8.43770876 L48.6978409,9.91427126 L51.1587784,9.91427126 L49.7525284,18.1408338 L51.7212784,18.1408338 Z M43.8462784,18.0705213 C44.9244034,17.4611463 45.8619034,16.8517713 46.6587784,16.2423963 C47.4556534,15.6798963 48.0884659,15.2345838 48.5572159,14.9064588 L48.5572159,14.9064588 L48.9790909,12.5158338 C47.7603409,13.5002088 46.9634659,14.1330213 46.5884659,14.4142713 L46.5884659,14.4142713 L47.9244034,6.67989626 L44.1275284,6.67989626 L43.8462784,8.29708376 L45.6744034,8.29708376 L43.8462784,18.0705213 Z M75.9790909,17.8595838 L76.8931534,11.2502088 L74.9947159,11.2502088 L74.2212784,16.3127088 L69.7915909,16.3127088 L70.7056534,9.91427126 L76.4712784,9.91427126 L77.3853409,3.51583376 L75.4869034,3.51583376 L74.7837784,8.36739626 L70.9165909,8.36739626 L71.8306534,1.96895876 L69.8619034,1.96895876 L68.9478409,8.36739626 L65.5728409,8.36739626 L66.2056534,3.51583376 L64.3072159,3.51583376 L63.3931534,9.91427126 L68.7369034,9.91427126 L67.8228409,16.3127088 L63.8150284,16.3127088 L64.5181534,11.2502088 L62.6197159,11.2502088 L61.6353409,17.8595838 L75.9790909,17.8595838 Z M80.3384659,7.17208376 C81.3228409,6.89083376 82.3072159,6.46895876 83.2915909,5.90645876 C84.2759659,5.39083376 85.1431534,4.78145876 85.8931534,4.07833376 C86.5962784,3.37520876 87.1353409,2.62520876 87.5103409,1.82833376 L87.5103409,1.82833376 L85.2603409,1.82833376 C84.7915909,2.48458376 84.1587784,3.09395876 83.3619034,3.65645876 C82.5181534,4.26583376 81.6509659,4.71114626 80.7603409,4.99239626 L80.7603409,4.99239626 L80.3384659,7.17208376 Z M95.4556534,4.28927126 L95.6665909,2.60177126 L88.2837784,2.60177126 L88.0728409,4.28927126 L95.4556534,4.28927126 Z M82.9400284,17.9298963 L84.2759659,9.28145876 C85.4947159,8.25020876 86.4087784,7.14864626 87.0181534,5.97677126 L87.0181534,5.97677126 L84.7681534,5.97677126 C84.4400284,6.53927126 83.9712784,7.10177126 83.3619034,7.66427126 C82.7525284,8.22677126 82.1431534,8.69552126 81.5337784,9.07052126 C80.8775284,9.44552126 80.3150284,9.72677126 79.8462784,9.91427126 L79.8462784,9.91427126 L79.3540909,12.1642713 C80.2447159,11.8830213 81.1353409,11.4845838 82.0259659,10.9689588 L82.0259659,10.9689588 L80.9009659,17.9298963 L82.9400284,17.9298963 Z M92.0103409,17.9298963 L93.2759659,8.71895876 L95.5259659,8.71895876 L95.7369034,7.03145876 L87.0884659,7.03145876 L86.8072159,8.71895876 L91.2369034,8.71895876 L90.1822159,16.2423963 L87.2290909,16.2423963 L87.7212784,17.9298963 L92.0103409,17.9298963 Z M98.8301298,17.8592576 C99.4389784,16.0821389 99.9209835,14.2114877 100.276145,12.2473039 L100.276145,12.2473039 L101.950479,12.2473039 L100.884994,17.8592576 L102.863752,17.8592576 L105.375252,3.05772963 C105.476727,2.6368331 105.425989,2.35623541 105.22304,2.21593657 C105.02009,2.07563772 104.664929,2.0054883 104.157555,2.0054883 L104.157555,2.0054883 L100.276145,2.0054883 L98.4495994,12.1771544 C98.0437004,14.3751697 97.5363266,16.269204 96.927478,17.8592576 L96.927478,17.8592576 L98.8301298,17.8592576 Z M106.326488,17.8591117 L107.283714,10.5258664 L111.623142,10.5258664 C111.793316,10.5258664 111.835859,10.618987 111.750773,10.8052281 L111.750773,10.8052281 L110.34684,13.2496432 L109.261983,11.3639516 L107.411345,11.3639516 L109.325798,14.7162923 C108.47493,15.7871789 107.538975,16.8347854 106.517933,17.8591117 L106.517933,17.8591117 L108.751462,17.8591117 C109.304527,17.2072677 109.793776,16.6019839 110.21921,16.0432605 L110.21921,16.0432605 L111.495512,17.8591117 L113.665226,17.8591117 L111.304067,14.7162923 C111.942218,13.7850865 112.644184,12.6443595 113.409966,11.2941112 C113.750313,10.6422671 113.920487,10.1068238 113.920487,9.68778124 C113.920487,9.36185923 113.856672,9.15233793 113.729041,9.05921736 C113.601411,9.01265707 113.452509,8.98937693 113.282335,8.98937693 L113.282335,8.98937693 L107.538975,8.98937693 L108.177126,3.82118502 L112.069848,3.82118502 C112.240022,3.82118502 112.303837,3.91430559 112.261294,4.10054674 L112.261294,4.10054674 L111.942218,6.12591925 L109.070538,6.12591925 L109.517244,7.66240874 L113.473781,7.66240874 L114.175747,3.26246157 C114.218291,2.84341898 114.197019,2.56405726 114.111932,2.42437639 C113.984302,2.28469553 113.729041,2.2148551 113.346151,2.2148551 L113.346151,2.2148551 L106.645563,2.2148551 L104.539664,17.8591117 L106.326488,17.8591117 Z M103.015964,6.35475245 L101.34163,6.35475245 L101.874373,3.54877558 L103.09207,3.54877558 C103.295019,3.54877558 103.421863,3.59554186 103.4726,3.68907442 L103.4726,3.68907442 L103.4726,3.89952269 L103.015964,6.35475245 Z M102.178797,10.774166 L100.580569,10.774166 L101.113312,7.8278903 L102.711539,7.8278903 L102.178797,10.774166 Z M119.783778,10.3361463 C121.658778,9.53927126 123.205653,8.83614626 124.424403,8.22677126 C125.596278,8.92989626 126.838466,9.63302126 128.150966,10.3361463 L128.150966,10.3361463 L132.088466,10.3361463 C130.119716,9.39864626 128.150966,8.39083376 126.182216,7.31270876 C127.541591,6.56270876 128.783778,5.81270876 129.908778,5.06270876 C130.377528,4.73458376 130.658778,4.26583376 130.752528,3.65645876 C130.799403,3.32833376 130.565028,3.16427126 130.049403,3.16427126 L130.049403,3.16427126 L122.736903,3.16427126 L123.861903,1.82833376 L121.471278,1.82833376 C120.065028,3.51583376 118.447841,5.08614626 116.619716,6.53927126 L116.619716,6.53927126 L119.432216,6.53927126 L120.416591,5.62520876 C121.260341,6.18770876 122.080653,6.72677126 122.877528,7.24239626 C120.674403,8.27364626 118.260341,9.30489626 115.635341,10.3361463 L115.635341,10.3361463 L119.783778,10.3361463 Z M124.565028,6.39864626 L123.088466,5.34395876 L120.627528,5.34395876 L121.471278,4.57052126 L127.307216,4.57052126 C127.354091,4.57052126 127.377528,4.59395876 127.377528,4.64083376 C127.377528,4.68770876 127.330653,4.73458376 127.236903,4.78145876 C126.627528,5.20333376 125.736903,5.74239626 124.565028,6.39864626 L124.565028,6.39864626 Z M118.799403,18.0002088 C120.158778,17.1095838 121.236903,16.2189588 122.033778,15.3283338 C122.830653,14.4845838 123.440028,13.5705213 123.861903,12.5861463 L123.861903,12.5861463 L127.729091,12.5861463 C127.869716,12.5861463 127.940028,12.7033338 127.940028,12.9377088 C127.893153,13.3595838 127.822841,13.9220838 127.729091,14.6252088 C127.635341,15.3752088 127.541591,15.9845838 127.447841,16.4533338 L127.447841,16.4533338 L123.229091,16.4533338 L123.721278,18.0002088 L129.346278,18.0002088 C129.674403,15.9845838 129.932216,14.0627088 130.119716,12.2345838 C130.166591,11.8127088 130.096278,11.5080213 129.908778,11.3205213 C129.815028,11.1798963 129.557216,11.1095838 129.135341,11.1095838 L129.135341,11.1095838 L124.354091,11.1095838 C124.494716,10.5002088 124.635341,9.93770876 124.775966,9.42208376 L124.775966,9.42208376 L122.736903,9.42208376 C122.596278,10.0783338 122.455653,10.6408338 122.315028,11.1095838 L122.315028,11.1095838 L117.182216,11.1095838 L117.604091,12.5861463 L121.752528,12.5861463 C121.518153,13.1486463 121.072841,13.7580213 120.416591,14.4142713 C119.713466,15.1173963 118.893153,15.7736463 117.955653,16.3830213 C116.971278,17.0392713 115.963466,17.5783338 114.932216,18.0002088 L114.932216,18.0002088 L118.799403,18.0002088 Z" id="腾讯出行服务"></path>
        </g>
    </g>
</svg>